{"title":"Cyber City Odeo 808 File 2 Psychic Trooper","uid":5360947,"size":471934220,"categoryP":"video","categoryS":"movies","magnet":"?xt=urn:btih:663826b189b2b857d93d7530e8536fed1f3ab7dd&amp;dn=Cyber+City+Odeo+808+File+2+Psychic+Trooper&amp;tr=udp%3A%2F%2Ftracker.openbittorrent.com%3A80&amp;tr=udp%3A%2F%2Fopen.demonii.com%3A1337&amp;tr=udp%3A%2F%2Ftracker.coppersurfer.tk%3A6969&amp;tr=udp%3A%2F%2Fexodus.desync.com%3A6969","seeders":1,"leechers":0,"uploader":"Da5t3r","files":-1,"time":1266095869,"description":"&quot;Psychic Trooper&quot; (aka &quot;The Decoy&quot; or &quot;The Decoy Program&quot;): Gogol's investigation of a murder pits him against an experimental military cyborg as he tries to rescue his ex-partner. Of note is that during this episode we see at least one other cyber-criminal trying to (unsuccessfully) remove his collar, so we know that there are more than our three anti-heroes being employed by the Cyber Police unit. \n\nVideo\nFormat                           : MPEG-4 Visual\nCodec ID                         : DivX\nDuration                         : 44mn 36s\nBit rate                         : 1 269 Kbps\nWidth                            : 720 pixels\nHeight                           : 528 pixels\nDisplay aspect ratio             : 4:3\nFrame rate                       : 25.000 fps\nResolution                       : 8 bits\nBits/(Pixel*Frame)               : 0.134\nStream size                      : 405 MiB (90%)\n\nAudio\nFormat                           : MPEG Audio\nFormat version                   : Version 1\nFormat profile                   : Layer 3\nFormat_Settings_Mode             : Joint stereo\nFormat_Settings_ModeExtension    : MS Stereo\nCodec ID                         : MP3\nDuration                         : 44mn 35s\nBit rate mode                    : Constant\nBit rate                         : 128 Kbps\nChannel(s)                       : 2 channels\nSampling rate                    : 48.0 KHz\nStream size                      : 40.8 MiB (9%)\nAlignment                        : Split accross interleaves\nInterleave, duration             : 24 ms (0.60 video frame)","torrent":{"xt":"urn:btih:663826b189b2b857d93d7530e8536fed1f3ab7dd","amp;dn":"Cyber+City+Odeo+808+File+2+Psychic+Trooper","amp;tr":["udp%3A%2F%2Ftracker.openbittorrent.com%3A80","udp%3A%2F%2Fopen.demonii.com%3A1337","udp%3A%2F%2Ftracker.coppersurfer.tk%3A6969","udp%3A%2F%2Fexodus.desync.com%3A6969"],"infoHash":"663826b189b2b857d93d7530e8536fed1f3ab7dd","infoHashBuffer":{"type":"Buffer","data":[102,56,38,177,137,178,184,87,217,61,117,48,232,83,111,237,31,58,183,221]},"announce":[],"urlList":[]}}